<mxfile host="app.diagrams.net" agent="Mozilla/5.0 (Windows NT 10.0; Win64; x64) AppleWebKit/537.36 (KHTML, like Gecko) Chrome/136.0.0.0 Safari/537.36" version="27.0.8">
  <diagram name="PÃ¡gina-1" id="aPBzdaeZ4dH7IRvLZaPV">
    <mxGraphModel grid="1" page="1" gridSize="10" guides="1" tooltips="1" connect="1" arrows="1" fold="1" pageScale="1" pageWidth="827" pageHeight="1169" math="0" shadow="0">
      <root>
        <mxCell id="0" />
        <mxCell id="1" parent="0" />
        <mxCell id="VuWOClB8sa4O3EBtlD4R-1" value="Produtor" style="swimlane;fontStyle=1;align=center;verticalAlign=top;childLayout=stackLayout;horizontal=1;startSize=26;horizontalStack=0;resizeParent=1;resizeParentMax=0;resizeLast=0;collapsible=1;marginBottom=0;whiteSpace=wrap;html=1;fillColor=#647687;strokeColor=#314354;fontColor=#ffffff;" vertex="1" parent="1">
          <mxGeometry x="20" y="50" width="240" height="160" as="geometry" />
        </mxCell>
        <mxCell id="VuWOClB8sa4O3EBtlD4R-2" value="- nome: String&lt;div&gt;- cpfCnpj: String&lt;/div&gt;&lt;div&gt;- telefone&lt;span style=&quot;background-color: transparent; color: light-dark(rgb(0, 0, 0), rgb(255, 255, 255));&quot;&gt;: String&lt;/span&gt;&lt;/div&gt;&lt;div&gt;- email&lt;span style=&quot;background-color: transparent; color: light-dark(rgb(0, 0, 0), rgb(255, 255, 255));&quot;&gt;: String&lt;/span&gt;&lt;/div&gt;&lt;div&gt;- categoria&lt;span style=&quot;background-color: transparent; color: light-dark(rgb(0, 0, 0), rgb(255, 255, 255));&quot;&gt;: String&lt;/span&gt;&lt;/div&gt;" style="text;strokeColor=none;fillColor=none;align=left;verticalAlign=top;spacingLeft=4;spacingRight=4;overflow=hidden;rotatable=0;points=[[0,0.5],[1,0.5]];portConstraint=eastwest;whiteSpace=wrap;html=1;" vertex="1" parent="VuWOClB8sa4O3EBtlD4R-1">
          <mxGeometry y="26" width="240" height="84" as="geometry" />
        </mxCell>
        <mxCell id="VuWOClB8sa4O3EBtlD4R-3" value="" style="line;strokeWidth=1;fillColor=none;align=left;verticalAlign=middle;spacingTop=-1;spacingLeft=3;spacingRight=3;rotatable=0;labelPosition=right;points=[];portConstraint=eastwest;strokeColor=inherit;" vertex="1" parent="VuWOClB8sa4O3EBtlD4R-1">
          <mxGeometry y="110" width="240" height="10" as="geometry" />
        </mxCell>
        <mxCell id="VuWOClB8sa4O3EBtlD4R-4" value="+ produtoAssociado(): List&amp;lt;Produto&amp;gt;&lt;div&gt;+ edicoesParticipadas(): List&amp;lt;EdicaoFeira&amp;gt;&lt;/div&gt;" style="text;strokeColor=none;fillColor=none;align=left;verticalAlign=top;spacingLeft=4;spacingRight=4;overflow=hidden;rotatable=0;points=[[0,0.5],[1,0.5]];portConstraint=eastwest;whiteSpace=wrap;html=1;" vertex="1" parent="VuWOClB8sa4O3EBtlD4R-1">
          <mxGeometry y="120" width="240" height="40" as="geometry" />
        </mxCell>
        <mxCell id="VuWOClB8sa4O3EBtlD4R-5" value="Produto" style="swimlane;fontStyle=1;align=center;verticalAlign=top;childLayout=stackLayout;horizontal=1;startSize=26;horizontalStack=0;resizeParent=1;resizeParentMax=0;resizeLast=0;collapsible=1;marginBottom=0;whiteSpace=wrap;html=1;fillColor=#647687;strokeColor=#314354;fontColor=#ffffff;" vertex="1" parent="1">
          <mxGeometry x="274" y="50" width="186" height="140" as="geometry" />
        </mxCell>
        <mxCell id="VuWOClB8sa4O3EBtlD4R-6" value="- nome: String&lt;div&gt;- descricao&lt;span style=&quot;background-color: transparent; color: light-dark(rgb(0, 0, 0), rgb(255, 255, 255));&quot;&gt;: String&lt;/span&gt;&lt;/div&gt;&lt;div&gt;- precoMedio: double&lt;/div&gt;&lt;div&gt;- categoria&lt;span style=&quot;background-color: transparent; color: light-dark(rgb(0, 0, 0), rgb(255, 255, 255));&quot;&gt;: String&lt;/span&gt;&lt;/div&gt;&lt;div&gt;&lt;span style=&quot;background-color: transparent; color: light-dark(rgb(0, 0, 0), rgb(255, 255, 255));&quot;&gt;- produtor: Produtor&lt;/span&gt;&lt;/div&gt;" style="text;strokeColor=none;fillColor=none;align=left;verticalAlign=top;spacingLeft=4;spacingRight=4;overflow=hidden;rotatable=0;points=[[0,0.5],[1,0.5]];portConstraint=eastwest;whiteSpace=wrap;html=1;" vertex="1" parent="VuWOClB8sa4O3EBtlD4R-5">
          <mxGeometry y="26" width="186" height="74" as="geometry" />
        </mxCell>
        <mxCell id="VuWOClB8sa4O3EBtlD4R-7" value="" style="line;strokeWidth=1;fillColor=none;align=left;verticalAlign=middle;spacingTop=-1;spacingLeft=3;spacingRight=3;rotatable=0;labelPosition=right;points=[];portConstraint=eastwest;strokeColor=inherit;" vertex="1" parent="VuWOClB8sa4O3EBtlD4R-5">
          <mxGeometry y="100" width="186" height="10" as="geometry" />
        </mxCell>
        <mxCell id="VuWOClB8sa4O3EBtlD4R-8" value="+ produtorAssociado(): Produtor" style="text;strokeColor=none;fillColor=none;align=left;verticalAlign=top;spacingLeft=4;spacingRight=4;overflow=hidden;rotatable=0;points=[[0,0.5],[1,0.5]];portConstraint=eastwest;whiteSpace=wrap;html=1;" vertex="1" parent="VuWOClB8sa4O3EBtlD4R-5">
          <mxGeometry y="110" width="186" height="30" as="geometry" />
        </mxCell>
        <mxCell id="VuWOClB8sa4O3EBtlD4R-9" value="EdicaoFeira" style="swimlane;fontStyle=1;align=center;verticalAlign=top;childLayout=stackLayout;horizontal=1;startSize=26;horizontalStack=0;resizeParent=1;resizeParentMax=0;resizeLast=0;collapsible=1;marginBottom=0;whiteSpace=wrap;html=1;fillColor=#647687;strokeColor=#314354;fontColor=#ffffff;" vertex="1" parent="1">
          <mxGeometry x="490" y="50" width="220" height="140" as="geometry" />
        </mxCell>
        <mxCell id="VuWOClB8sa4O3EBtlD4R-10" value="- data: Date&lt;div&gt;- horario: String&lt;/div&gt;&lt;div&gt;- local&lt;span style=&quot;background-color: transparent; color: light-dark(rgb(0, 0, 0), rgb(255, 255, 255));&quot;&gt;: String&lt;/span&gt;&lt;/div&gt;&lt;div&gt;- numeroMaximoBancas: int&lt;/div&gt;" style="text;strokeColor=none;fillColor=none;align=left;verticalAlign=top;spacingLeft=4;spacingRight=4;overflow=hidden;rotatable=0;points=[[0,0.5],[1,0.5]];portConstraint=eastwest;whiteSpace=wrap;html=1;" vertex="1" parent="VuWOClB8sa4O3EBtlD4R-9">
          <mxGeometry y="26" width="220" height="64" as="geometry" />
        </mxCell>
        <mxCell id="VuWOClB8sa4O3EBtlD4R-11" value="" style="line;strokeWidth=1;fillColor=none;align=left;verticalAlign=middle;spacingTop=-1;spacingLeft=3;spacingRight=3;rotatable=0;labelPosition=right;points=[];portConstraint=eastwest;strokeColor=inherit;" vertex="1" parent="VuWOClB8sa4O3EBtlD4R-9">
          <mxGeometry y="90" width="220" height="10" as="geometry" />
        </mxCell>
        <mxCell id="VuWOClB8sa4O3EBtlD4R-12" value="+ controleDeBancas(): int&lt;div&gt;+ impedirInscricaoNoLimite(): boolean&lt;/div&gt;" style="text;strokeColor=none;fillColor=none;align=left;verticalAlign=top;spacingLeft=4;spacingRight=4;overflow=hidden;rotatable=0;points=[[0,0.5],[1,0.5]];portConstraint=eastwest;whiteSpace=wrap;html=1;" vertex="1" parent="VuWOClB8sa4O3EBtlD4R-9">
          <mxGeometry y="100" width="220" height="40" as="geometry" />
        </mxCell>
        <mxCell id="VuWOClB8sa4O3EBtlD4R-13" value="Participacao" style="swimlane;fontStyle=1;align=center;verticalAlign=top;childLayout=stackLayout;horizontal=1;startSize=26;horizontalStack=0;resizeParent=1;resizeParentMax=0;resizeLast=0;collapsible=1;marginBottom=0;whiteSpace=wrap;html=1;fillColor=#647687;fontColor=#ffffff;strokeColor=#314354;" vertex="1" parent="1">
          <mxGeometry x="20" y="260" width="200" height="180" as="geometry" />
        </mxCell>
        <mxCell id="VuWOClB8sa4O3EBtlD4R-14" value="- produtor: Produtor&lt;div&gt;- edicao: EdicaoFeira&lt;/div&gt;&lt;div&gt;- banca: int&lt;/div&gt;" style="text;strokeColor=none;fillColor=none;align=left;verticalAlign=top;spacingLeft=4;spacingRight=4;overflow=hidden;rotatable=0;points=[[0,0.5],[1,0.5]];portConstraint=eastwest;whiteSpace=wrap;html=1;" vertex="1" parent="VuWOClB8sa4O3EBtlD4R-13">
          <mxGeometry y="26" width="200" height="54" as="geometry" />
        </mxCell>
        <mxCell id="VuWOClB8sa4O3EBtlD4R-15" value="" style="line;strokeWidth=1;fillColor=none;align=left;verticalAlign=middle;spacingTop=-1;spacingLeft=3;spacingRight=3;rotatable=0;labelPosition=right;points=[];portConstraint=eastwest;strokeColor=inherit;" vertex="1" parent="VuWOClB8sa4O3EBtlD4R-13">
          <mxGeometry y="80" width="200" height="10" as="geometry" />
        </mxCell>
        <mxCell id="VuWOClB8sa4O3EBtlD4R-16" value="+ inscreverEmEdicaoFutura(): void&lt;div&gt;+ alocarBanca(): void&lt;/div&gt;&lt;div&gt;+ cancelarParticipacao(): void&lt;/div&gt;&lt;div&gt;+ verificarProdutorAtivo(): boolean&lt;/div&gt;&lt;div&gt;+ verificarPendencias(): boolean&lt;/div&gt;" style="text;strokeColor=none;fillColor=none;align=left;verticalAlign=top;spacingLeft=4;spacingRight=4;overflow=hidden;rotatable=0;points=[[0,0.5],[1,0.5]];portConstraint=eastwest;whiteSpace=wrap;html=1;" vertex="1" parent="VuWOClB8sa4O3EBtlD4R-13">
          <mxGeometry y="90" width="200" height="90" as="geometry" />
        </mxCell>
        <mxCell id="VuWOClB8sa4O3EBtlD4R-17" value="Venda" style="swimlane;fontStyle=1;align=center;verticalAlign=top;childLayout=stackLayout;horizontal=1;startSize=26;horizontalStack=0;resizeParent=1;resizeParentMax=0;resizeLast=0;collapsible=1;marginBottom=0;whiteSpace=wrap;html=1;fillColor=#647687;fontColor=#ffffff;strokeColor=#314354;" vertex="1" parent="1">
          <mxGeometry x="244" y="260" width="206" height="200" as="geometry" />
        </mxCell>
        <mxCell id="VuWOClB8sa4O3EBtlD4R-18" value="- produtor: Produto&lt;div&gt;- produto: Produtor&lt;/div&gt;&lt;div&gt;- edicao: EdicaoFeira&lt;/div&gt;&lt;div&gt;- quantidade: int&lt;/div&gt;&lt;div&gt;- valorTotal: double&lt;/div&gt;&lt;div&gt;- observacoes: String&lt;/div&gt;" style="text;strokeColor=none;fillColor=none;align=left;verticalAlign=top;spacingLeft=4;spacingRight=4;overflow=hidden;rotatable=0;points=[[0,0.5],[1,0.5]];portConstraint=eastwest;whiteSpace=wrap;html=1;" vertex="1" parent="VuWOClB8sa4O3EBtlD4R-17">
          <mxGeometry y="26" width="206" height="94" as="geometry" />
        </mxCell>
        <mxCell id="VuWOClB8sa4O3EBtlD4R-19" value="" style="line;strokeWidth=1;fillColor=none;align=left;verticalAlign=middle;spacingTop=-1;spacingLeft=3;spacingRight=3;rotatable=0;labelPosition=right;points=[];portConstraint=eastwest;strokeColor=inherit;" vertex="1" parent="VuWOClB8sa4O3EBtlD4R-17">
          <mxGeometry y="120" width="206" height="10" as="geometry" />
        </mxCell>
        <mxCell id="VuWOClB8sa4O3EBtlD4R-20" value="+ totalVendidoPorBanca(): double&lt;div&gt;+ registrarFormaPagamento(): void&lt;/div&gt;&lt;div&gt;+ aplicarPromocao(): void&lt;/div&gt;" style="text;strokeColor=none;fillColor=none;align=left;verticalAlign=top;spacingLeft=4;spacingRight=4;overflow=hidden;rotatable=0;points=[[0,0.5],[1,0.5]];portConstraint=eastwest;whiteSpace=wrap;html=1;" vertex="1" parent="VuWOClB8sa4O3EBtlD4R-17">
          <mxGeometry y="130" width="206" height="70" as="geometry" />
        </mxCell>
        <mxCell id="VuWOClB8sa4O3EBtlD4R-21" value="Consulta" style="swimlane;fontStyle=1;align=center;verticalAlign=top;childLayout=stackLayout;horizontal=1;startSize=26;horizontalStack=0;resizeParent=1;resizeParentMax=0;resizeLast=0;collapsible=1;marginBottom=0;whiteSpace=wrap;html=1;fillColor=#647687;fontColor=#ffffff;strokeColor=#314354;" vertex="1" parent="1">
          <mxGeometry x="470" y="260" width="270" height="110" as="geometry" />
        </mxCell>
        <mxCell id="VuWOClB8sa4O3EBtlD4R-22" value="- edicao: EdicaoFeira" style="text;strokeColor=none;fillColor=none;align=left;verticalAlign=top;spacingLeft=4;spacingRight=4;overflow=hidden;rotatable=0;points=[[0,0.5],[1,0.5]];portConstraint=eastwest;whiteSpace=wrap;html=1;" vertex="1" parent="VuWOClB8sa4O3EBtlD4R-21">
          <mxGeometry y="26" width="270" height="24" as="geometry" />
        </mxCell>
        <mxCell id="VuWOClB8sa4O3EBtlD4R-23" value="" style="line;strokeWidth=1;fillColor=none;align=left;verticalAlign=middle;spacingTop=-1;spacingLeft=3;spacingRight=3;rotatable=0;labelPosition=right;points=[];portConstraint=eastwest;strokeColor=inherit;" vertex="1" parent="VuWOClB8sa4O3EBtlD4R-21">
          <mxGeometry y="50" width="270" height="10" as="geometry" />
        </mxCell>
        <mxCell id="VuWOClB8sa4O3EBtlD4R-24" value="+ consultarEdicaoAnterior(): List&amp;lt;EdicaoFeira&amp;gt;&lt;div&gt;+ listarProdutoresParticipantes(): List&amp;lt;Produtor&amp;gt;&lt;/div&gt;" style="text;strokeColor=none;fillColor=none;align=left;verticalAlign=top;spacingLeft=4;spacingRight=4;overflow=hidden;rotatable=0;points=[[0,0.5],[1,0.5]];portConstraint=eastwest;whiteSpace=wrap;html=1;" vertex="1" parent="VuWOClB8sa4O3EBtlD4R-21">
          <mxGeometry y="60" width="270" height="50" as="geometry" />
        </mxCell>
        <mxCell id="VuWOClB8sa4O3EBtlD4R-25" value="Historico" style="swimlane;fontStyle=1;align=center;verticalAlign=top;childLayout=stackLayout;horizontal=1;startSize=26;horizontalStack=0;resizeParent=1;resizeParentMax=0;resizeLast=0;collapsible=1;marginBottom=0;whiteSpace=wrap;html=1;fillColor=#647687;fontColor=#ffffff;strokeColor=#314354;" vertex="1" parent="1">
          <mxGeometry x="30" y="500" width="200" height="80" as="geometry" />
        </mxCell>
        <mxCell id="VuWOClB8sa4O3EBtlD4R-28" value="+ vendaPorProdutor(): List&amp;lt;Venda&amp;gt;&lt;div&gt;+ vendaPorProduto()&lt;span style=&quot;background-color: transparent; color: light-dark(rgb(0, 0, 0), rgb(255, 255, 255));&quot;&gt;: List&amp;lt;Venda&amp;gt;&lt;/span&gt;&lt;/div&gt;&lt;div&gt;+ vendaPorEdicao()&lt;span style=&quot;background-color: transparent; color: light-dark(rgb(0, 0, 0), rgb(255, 255, 255));&quot;&gt;: List&amp;lt;Venda&amp;gt;&lt;/span&gt;&lt;/div&gt;" style="text;strokeColor=none;fillColor=none;align=left;verticalAlign=top;spacingLeft=4;spacingRight=4;overflow=hidden;rotatable=0;points=[[0,0.5],[1,0.5]];portConstraint=eastwest;whiteSpace=wrap;html=1;" vertex="1" parent="VuWOClB8sa4O3EBtlD4R-25">
          <mxGeometry y="26" width="200" height="54" as="geometry" />
        </mxCell>
        <mxCell id="VuWOClB8sa4O3EBtlD4R-33" value="Relatorio" style="swimlane;fontStyle=1;align=center;verticalAlign=top;childLayout=stackLayout;horizontal=1;startSize=26;horizontalStack=0;resizeParent=1;resizeParentMax=0;resizeLast=0;collapsible=1;marginBottom=0;whiteSpace=wrap;html=1;fillColor=#647687;fontColor=#ffffff;strokeColor=#314354;" vertex="1" parent="1">
          <mxGeometry x="254" y="500" width="220" height="140" as="geometry" />
        </mxCell>
        <mxCell id="VuWOClB8sa4O3EBtlD4R-34" value="+ gerarPorEdicao(): void&lt;div&gt;+ gerarPorProdutor(): void&lt;/div&gt;&lt;div&gt;+ gerarPorProduto(): void&lt;/div&gt;&lt;div&gt;+ participacaoPorProdutor(): Relatorio&lt;/div&gt;&lt;div&gt;+ frequenciaProdutor(): int&lt;/div&gt;&lt;div&gt;+ mediaVendasPorProdutor(): double&lt;/div&gt;" style="text;strokeColor=none;fillColor=none;align=left;verticalAlign=top;spacingLeft=4;spacingRight=4;overflow=hidden;rotatable=0;points=[[0,0.5],[1,0.5]];portConstraint=eastwest;whiteSpace=wrap;html=1;" vertex="1" parent="VuWOClB8sa4O3EBtlD4R-33">
          <mxGeometry y="26" width="220" height="114" as="geometry" />
        </mxCell>
        <mxCell id="VuWOClB8sa4O3EBtlD4R-35" value="Exportar" style="swimlane;fontStyle=1;align=center;verticalAlign=top;childLayout=stackLayout;horizontal=1;startSize=26;horizontalStack=0;resizeParent=1;resizeParentMax=0;resizeLast=0;collapsible=1;marginBottom=0;whiteSpace=wrap;html=1;fillColor=#647687;fontColor=#ffffff;strokeColor=#314354;" vertex="1" parent="1">
          <mxGeometry x="520" y="500" width="170" height="100" as="geometry" />
        </mxCell>
        <mxCell id="VuWOClB8sa4O3EBtlD4R-36" value="+ exportarPdf(): void&lt;div&gt;+ exportarCsv(): void&lt;/div&gt;&lt;div&gt;+ agruparPorCategoria(): void&lt;/div&gt;&lt;div&gt;+ agruparPorProduto(): void&lt;/div&gt;" style="text;strokeColor=none;fillColor=none;align=left;verticalAlign=top;spacingLeft=4;spacingRight=4;overflow=hidden;rotatable=0;points=[[0,0.5],[1,0.5]];portConstraint=eastwest;whiteSpace=wrap;html=1;" vertex="1" parent="VuWOClB8sa4O3EBtlD4R-35">
          <mxGeometry y="26" width="170" height="74" as="geometry" />
        </mxCell>
      </root>
    </mxGraphModel>
  </diagram>
</mxfile>
